<?xml version="1.0" encoding="utf-8"?>
<!-- Generator: Adobe Illustrator 25.2.1, SVG Export Plug-In . SVG Version: 6.00 Build 0)  -->
<svg version="1.1" id="Capa_1" xmlns="http://www.w3.org/2000/svg" xmlns:xlink="http://www.w3.org/1999/xlink" x="0px" y="0px"
	 viewBox="0 0 16 16" style="enable-background:new 0 0 16 16;" xml:space="preserve">
<style type="text/css">
	.st0{fill:#E2E2E2;}
	.st1{fill:#FFFFFF;}
</style>
<path class="st0" d="M7.3,15.5H4.5H2.6L0.9,14l-0.2-1.5c0,0,0.5-1.2,0.5-1.3c0-0.1,1-0.6,1.1-0.7c0.1-0.1,0.8-0.3,0.8-0.4
	c0.1-0.1,0.7-0.8,0.9-1c0.2-0.2,0.7-0.8,0.9-0.9C5.1,8.2,6,7.8,6.2,7.7c0.2-0.1,0.9-0.4,1.3-0.2C7.9,7.7,8.8,7.8,9,8
	c0.2,0.2,0.6,0.2,1,0.7s0.7,0.6,0.8,1.3c0.1,0.7,0.6,1.5,0.6,1.5s0.6,0.5,1.2,0.6c0.6,0.2,0.8,0.2,0.9,0.6c0.1,0.3,0.4,0.6,0.1,1.1
	c-0.3,0.5,0.4,0.9-1,1.3s-1.6,0.7-2.4,0.6c-0.7-0.1-1.8-0.2-2.2-0.1C7.7,15.6,7.3,15.5,7.3,15.5z"/>
<path class="st1" d="M7,8c1.9,0,3.5,1.6,3.5,3.5c0,0,0,0,0,0.1c0,0.3,0.2,0.5,0.5,0.5c0,0,0.1,0,0.1,0c0.8-0.2,1.6,0.3,1.8,1.1
	c0,0.1,0,0.2,0,0.4c0,0.8-0.7,1.5-1.5,1.5H3c-1.1,0-2-0.9-2-2s0.9-2,2-2c0,0,0.1,0,0.1,0c0.2,0,0.4-0.1,0.5-0.4C4,9.1,5.4,8,7,8z
	 M11.5,11c-0.3-2.5-2.5-4.3-5-4c-1.7,0.2-3.2,1.4-3.8,3c-1.7,0.1-2.9,1.6-2.7,3.2C0.1,14.8,1.4,16,3,16h8.5c1.4,0,2.5-1.1,2.5-2.5
	S12.9,11,11.5,11L11.5,11z"/>
<path class="st1" d="M11.3,1.8c0.2-0.2,0.1-0.5-0.1-0.7C11,1,10.9,1,10.7,1C8.6,1.7,7.2,3.8,7.5,6c0.4,0,0.7,0.1,1.1,0.2
	C8.3,4.9,8.8,3.5,9.8,2.6c-0.6,2.5,0.8,5,3.3,5.6c0.3,0.1,0.7,0.1,1,0.1C13.5,8.8,12.7,9,11.9,9c0.2,0.3,0.3,0.7,0.4,1
	c1.5-0.1,2.8-0.8,3.6-2c0.2-0.2,0.1-0.5-0.1-0.7c-0.1-0.1-0.3-0.1-0.4-0.1c-1.9,0.6-3.9-0.5-4.5-2.4C10.5,3.8,10.7,2.7,11.3,1.8
	L11.3,1.8z"/>
</svg>
