<?xml version="1.0" encoding="utf-8"?>
<!-- Generator: Adobe Illustrator 25.2.1, SVG Export Plug-In . SVG Version: 6.00 Build 0)  -->
<svg version="1.1" id="Capa_1" xmlns="http://www.w3.org/2000/svg" xmlns:xlink="http://www.w3.org/1999/xlink" x="0px" y="0px"
	 viewBox="0 0 16 16" style="enable-background:new 0 0 16 16;" xml:space="preserve">
<style type="text/css">
	.st0{fill:#E2E2E2;}
	.st1{fill:#FFFFFF;}
</style>
<path class="st0" d="M6.3,12.4c0,0-1.6,0.1-1.7,0.1s-1.9-0.2-2.1-0.2c-0.2,0-0.9-0.2-1-0.3S0.5,9.5,0.5,9.4c0-0.1,0.3-1.8,0.3-1.8
	c0.1,0,0.9-0.8,1.4-0.9c0.6-0.2,1.2-0.7,1.2-0.9C3.6,5.5,4,5.1,4,5c0-0.1,0.7-1,0.7-1S4.4,3.4,5.6,3.1s1.7-0.4,1.9-0.3
	c0.2,0.1,2.6,0.2,2.8,0.5s1.2,0.5,1.3,0.9c0.1,0.4,0.2,1,0.5,1.5s0.1,0.9,0.4,1.2c0.3,0.3,0.7-0.1,1.2,0.5c0.5,0.6,1,0.9,1.1,1.2
	c0.1,0.3,1,0.4,0.5,1.4s-0.6,1.8-1.3,2.2c-0.6,0.4-1.5,0.6-1.9,0.6c-0.4,0-1.6-0.1-2-0.1c-0.4,0-0.9-0.3-1.6-0.3c-0.7,0-1.7,0-1.7,0
	L6.3,12.4z"/>
<path class="st1" d="M4.4,3.3C5.4,2.5,6.7,2,8,2c2.7,0,4.9,2,5.2,4.6C14.8,6.8,16,8.1,16,9.8c0,1.8-1.5,3.2-3.3,3.2H3.8
	C1.7,13,0,11.4,0,9.3c0-1.8,1.3-3.2,2.9-3.6C3.1,4.9,3.6,4,4.4,3.3z M5.1,4.1C4.3,4.8,3.9,5.5,3.9,6.2v0.4l-0.4,0C2.1,6.8,1,8,1,9.3
	C1,10.8,2.2,12,3.8,12h8.9C14,12,15,11,15,9.8c0-1.2-1-2.2-2.3-2.2h-0.5V7c0-2.2-1.9-4-4.2-4C6.9,3,5.9,3.4,5.1,4.1L5.1,4.1z"/>
</svg>
