<?xml version="1.0" encoding="utf-8"?>
<!-- Generator: Adobe Illustrator 25.2.1, SVG Export Plug-In . SVG Version: 6.00 Build 0)  -->
<svg version="1.1" id="Capa_1" xmlns="http://www.w3.org/2000/svg" xmlns:xlink="http://www.w3.org/1999/xlink" x="0px" y="0px"
	 viewBox="0 0 16 16" style="enable-background:new 0 0 16 16;" xml:space="preserve">
<style type="text/css">
	.st0{fill:#E2E2E2;}
	.st1{fill:#FFFFFF;}
</style>
<path class="st0" d="M5.9,13.3c0,0-1.4,0.1-1.4,0.1c-0.1,0-1.7-0.2-1.8-0.2c-0.2,0-0.8-0.2-0.8-0.2s-1.1-1.4-1.1-1.5
	c0-0.1,0.2-1.6,0.3-1.6C1,9.8,1.7,9.2,2.2,9s1-0.6,1.1-0.8s0.4-0.5,0.4-0.6c0-0.1,0.6-0.9,0.6-0.9c0,0-0.3-0.5,0.8-0.8
	c1.1-0.3,1.5-0.3,1.6-0.3C6.8,5.7,9,5.9,9.1,6.1c0.2,0.2,0.6,0.8,0.7,1.1c0.1,0.3,0.3,0.7,0.6,1.2c0.3,0.4,0.5,0.7,0.7,0.9
	s0.6-0.1,1,0.5c0.4,0.5,0.9,0.8,1,1c0.1,0.3,0.9,0.4,0.4,1.2c-0.4,0.8-0.4,0.8-0.9,1.2c-0.6,0.3-1.3,0.5-1.6,0.6
	c-0.3,0-1.4-0.1-1.8-0.1c-0.3,0-0.8-0.3-1.4-0.3c-0.6,0-1.4,0-1.4,0L5.9,13.3z"/>
<path class="st1" d="M16,7.5c0,1-0.6,1.9-1.5,2.3c-0.2-0.3-0.4-0.6-0.6-0.8c0.8-0.2,1.3-1,1.1-1.8s-1-1.3-1.8-1.1
	c-0.3,0.1-0.5-0.1-0.6-0.4c0,0,0,0,0-0.1C12.3,4,10.8,2.8,9.1,3C8.4,3.1,7.7,3.5,7.3,4C6.8,4,6.4,4,6,4.1C7,2.2,9.5,1.4,11.4,2.5
	c1,0.5,1.7,1.4,2,2.5c1.4-0.1,2.6,1,2.6,2.4C16,7.4,16,7.5,16,7.5z"/>
<path class="st1" d="M7,5c2.3,0,4.2,1.7,4.5,4h0c1.4,0,2.5,1.1,2.5,2.5S12.9,14,11.5,14H3c-1.7,0-3-1.3-3-3c0-1.6,1.2-2.9,2.8-3
	C3.4,6.2,5.1,5,7,5z M10.5,9.5C10.5,7.6,8.9,6,7,6C5.4,6,4,7.1,3.6,8.6C3.6,8.9,3.3,9,3.1,9C2,9,1.1,9.8,1,10.9s0.8,2,1.9,2.1
	c0,0,0.1,0,0.1,0h8.5c0.8,0,1.5-0.7,1.5-1.5c0-0.8-0.7-1.5-1.5-1.5c-0.1,0-0.2,0-0.4,0c-0.3,0.1-0.5-0.1-0.6-0.4
	C10.5,9.6,10.5,9.6,10.5,9.5L10.5,9.5z"/>
</svg>
