<?xml version="1.0" encoding="utf-8"?>
<!-- Generator: Adobe Illustrator 25.2.1, SVG Export Plug-In . SVG Version: 6.00 Build 0)  -->
<svg version="1.1" id="Capa_1" xmlns="http://www.w3.org/2000/svg" xmlns:xlink="http://www.w3.org/1999/xlink" x="0px" y="0px"
	 viewBox="0 0 16 16" style="enable-background:new 0 0 16 16;" xml:space="preserve">
<style type="text/css">
	.st0{fill:#E2E2E2;}
	.st1{fill:#FFFFFF;}
</style>
<path class="st0" d="M6.1,10.4c0,0-1.6,0.1-1.7,0.1s-1.9-0.2-2.1-0.2c-0.2,0-0.9-0.2-1-0.3S0.3,7.5,0.3,7.4s0.3-1.8,0.3-1.8
	c0.1,0,0.9-0.8,1.4-0.9c0.6-0.2,0.7-0.2,0.8-0.4C2.9,4,3.5,4.6,3.6,4.4c0-0.1,1.5-1.3,1.5-1.4c0,0,0-0.8,1.2-1.1s1-0.7,1.2-0.6
	S9.9,1,10.1,1.3c0.2,0.3,1.2,0.5,1.3,0.9s0.2,1,0.5,1.5s0.4,0.1,0.7,0.4c0.3,0.3,0.4,0.8,0.9,1.3s1,0.9,1.1,1.2
	c0.1,0.3,1.2,1,0.6,1.9c-0.5,0.9-0.8,1.3-1.4,1.7c-0.6,0.4-1.5,0.3-1.9,0.3s-1.7,0.2-2,0.2c-0.4,0-0.9-0.3-1.6-0.3
	c-0.7,0-1.7,0-1.7,0L6.1,10.4z"/>
<path class="st1" d="M4.2,12c0.3,0.1,0.4,0.4,0.3,0.6c0,0,0,0,0,0L4,14.2c-0.1,0.3-0.4,0.4-0.6,0.3C3.1,14.4,3,14.1,3,13.8l0.5-1.5
	C3.6,12.1,3.9,11.9,4.2,12z M7.2,12c0.3,0.1,0.4,0.4,0.3,0.6c0,0,0,0,0,0l-1,3c-0.1,0.3-0.4,0.4-0.6,0.3c-0.2-0.1-0.4-0.4-0.3-0.6
	l1-3C6.6,12.1,6.9,11.9,7.2,12z M10.2,12c0.3,0.1,0.4,0.4,0.3,0.6c0,0,0,0,0,0L10,14.2c-0.1,0.3-0.4,0.4-0.6,0.3
	C9.1,14.4,9,14.1,9,13.8l0.5-1.5C9.6,12.1,9.9,11.9,10.2,12z M13.2,12c0.3,0.1,0.4,0.4,0.3,0.6c0,0,0,0,0,0l-1,3
	c-0.1,0.3-0.4,0.4-0.6,0.3s-0.4-0.4-0.3-0.6c0,0,0,0,0,0l1-3C12.6,12.1,12.9,11.9,13.2,12z M13.4,5c-0.5-2.7-3.2-4.5-5.9-3.9
	C5.9,1.4,4.6,2.5,3.9,4C2,3.8,0.2,5.2,0,7.1s1.2,3.7,3.1,3.9c0.1,0,0.3,0,0.4,0H13c1.7,0,3-1.3,3-3C16,6.5,14.9,5.2,13.4,5z M8.5,2
	c2,0,3.7,1.5,4,3.6C12.5,5.8,12.7,6,13,6h0c1.1,0,2,0.9,2,2c0,1.1-0.9,2-2,2H3.5C2.1,10,1,8.9,1,7.5S2.1,5,3.5,5
	c0.2,0,0.4,0,0.6,0.1C4.4,5.1,4.6,5,4.7,4.7C5.2,3.1,6.8,2,8.5,2z"/>
</svg>
