<?xml version="1.0" encoding="utf-8"?>
<!-- Generator: Adobe Illustrator 25.2.1, SVG Export Plug-In . SVG Version: 6.00 Build 0)  -->
<svg version="1.1" id="Capa_1" xmlns="http://www.w3.org/2000/svg" xmlns:xlink="http://www.w3.org/1999/xlink" x="0px" y="0px"
	 viewBox="0 0 16 16" style="enable-background:new 0 0 16 16;" xml:space="preserve">
<style type="text/css">
	.st0{fill:#FFFFFF;}
	.st1{fill:#FFF800;}
</style>
<path class="st0" d="M6.1,9.4c0,0-1.6,0.1-1.7,0.1S2.6,9.3,2.4,9.3c-0.2,0-0.9-0.2-1-0.3S0.3,6.5,0.3,6.4s0.3-1.8,0.3-1.8
	c0.1,0,0.9-0.8,1.4-0.9c0.6-0.2,0.7-0.2,0.8-0.4C3,3,3.6,3.6,3.6,3.4c0-0.1,1.5-1.3,1.5-1.4c0,0,0-0.8,1.2-1.1s1-0.7,1.2-0.6
	C7.6,0.4,9.9,0,10.1,0.3c0.2,0.3,1.2,0.5,1.3,0.9s0.2,1,0.5,1.5s0.4,0.1,0.7,0.4c0.3,0.3,0.4,0.8,0.9,1.3s1,0.9,1.1,1.2
	c0.1,0.3,1.2,1,0.6,1.9s-0.8,1.3-1.4,1.7c-0.6,0.4-1.5,0.3-1.9,0.3c-0.4,0-1.7,0.2-2,0.2C9.5,9.8,9,9.5,8.3,9.5c-0.7,0-1.7,0-1.7,0
	L6.1,9.4z"/>
<path d="M2.7,11c0.3,0.1,0.4,0.4,0.3,0.6l-0.5,1.5c-0.1,0.3-0.4,0.4-0.6,0.3c-0.3-0.1-0.4-0.4-0.3-0.6c0,0,0,0,0,0L2,11.3
	C2.1,11.1,2.4,10.9,2.7,11z M12.2,11c0.3,0.1,0.4,0.4,0.3,0.6L12,13.2c-0.1,0.3-0.4,0.4-0.6,0.3c-0.3-0.1-0.4-0.4-0.3-0.6
	c0,0,0,0,0,0l0.5-1.5C11.6,11.1,11.9,10.9,12.2,11z M4.7,12.5c0.3,0.1,0.4,0.4,0.3,0.6l-0.5,1.5c-0.1,0.3-0.4,0.4-0.6,0.3
	c-0.3-0.1-0.4-0.4-0.3-0.6c0,0,0,0,0,0L4,12.8C4.1,12.6,4.4,12.4,4.7,12.5z M14.2,12.5c0.3,0.1,0.4,0.4,0.3,0.6L14,14.7
	c-0.1,0.3-0.4,0.4-0.6,0.3c-0.3-0.1-0.4-0.4-0.3-0.6c0,0,0,0,0,0l0.5-1.5C13.6,12.6,13.9,12.4,14.2,12.5z M13.4,4
	c-0.5-2.7-3.2-4.5-5.9-3.9C5.9,0.4,4.6,1.5,3.9,3C2,2.8,0.2,4.2,0,6.1S1.2,9.8,3.1,10c0.1,0,0.3,0,0.4,0H13c1.7,0,3-1.3,3-3
	C16,5.5,14.9,4.2,13.4,4z M8.5,1c2,0,3.7,1.5,4,3.6C12.5,4.8,12.7,5,13,5h0c1.1,0,2,0.9,2,2c0,1.1-0.9,2-2,2H3.5C2.1,9,1,7.9,1,6.5
	S2.1,4,3.5,4c0.2,0,0.4,0,0.6,0.1C4.4,4.1,4.6,4,4.7,3.7C5.2,2.1,6.8,1,8.5,1z M7.1,11.3C7.1,11.1,7.3,11,7.5,11h1
	C8.8,11,9,11.2,9,11.5c0,0.1,0,0.1,0,0.2l-0.3,0.8h0.8c0.3,0,0.5,0.2,0.5,0.5c0,0.1,0,0.2-0.1,0.3l-2,2.5c-0.2,0.2-0.5,0.2-0.7,0.1
	C7,15.8,7,15.6,7,15.4L7.4,14H6.5C6.2,14,6,13.8,6,13.5c0-0.1,0-0.2,0.1-0.2L7.1,11.3z"/>
<path class="st1" d="M7.1,11.3C7.1,11.1,7.3,11,7.5,11h1C8.8,11,9,11.2,9,11.5c0,0.1,0,0.1,0,0.2l-0.3,0.8h0.8
	c0.3,0,0.5,0.2,0.5,0.5c0,0.1,0,0.2-0.1,0.3l-2,2.5c-0.2,0.2-0.5,0.2-0.7,0.1C7,15.8,7,15.6,7,15.4L7.4,14H6.5C6.2,14,6,13.8,6,13.5
	c0-0.1,0-0.2,0.1-0.2L7.1,11.3z"/>
</svg>
