<?xml version="1.0" encoding="utf-8"?>
<!-- Generator: Adobe Illustrator 25.2.1, SVG Export Plug-In . SVG Version: 6.00 Build 0)  -->
<svg version="1.1" id="Capa_1" xmlns="http://www.w3.org/2000/svg" xmlns:xlink="http://www.w3.org/1999/xlink" x="0px" y="0px"
	 viewBox="0 0 16 16" style="enable-background:new 0 0 16 16;" xml:space="preserve">
<style type="text/css">
	.st0{fill:#E2E2E2;}
	.st1{fill:#FFFFFF;}
</style>
<path class="st0" d="M6.3,9.9c0,0-1.6,0.1-1.7,0.1c-0.1,0-1.9-0.2-2.1-0.2c-0.2,0-0.9-0.2-1-0.3S0.5,7,0.5,6.9S0.7,5.1,0.8,5
	c0.1,0,0.9-0.8,1.4-0.9C2.8,3.9,3,3.9,3,3.7C3.1,3.5,3.7,4,3.7,3.9s1.5-1.3,1.5-1.4c0,0,0-0.8,1.2-1.1s1-0.7,1.2-0.6
	c0.2,0.1,2.4-0.4,2.6-0.1s1.2,0.5,1.3,0.9c0.1,0.4,0.2,1,0.5,1.5s0.4,0.1,0.7,0.4c0.3,0.3,0.4,0.8,0.9,1.3s1,0.9,1.1,1.2
	c0.1,0.3,1.2,1,0.6,1.9S14.6,9.3,14,9.7C13.3,10,12.5,10,12.1,10c-0.4,0-1.7,0.2-2,0.2c-0.4,0-0.9-0.3-1.6-0.3c-0.7,0-1.7,0-1.7,0
	L6.3,9.9z"/>
<path class="st1" d="M13.4,4.3c-0.5-2.7-3.2-4.5-5.9-3.9c-1.6,0.3-3,1.4-3.6,2.9C2,3.1,0.2,4.4,0,6.3s1.2,3.7,3.1,3.9
	c0.1,0,0.3,0,0.4,0H13c1.7,0,3-1.3,3-3C16,5.8,14.9,4.5,13.4,4.3z M8.5,1.2c2,0,3.7,1.5,4,3.6c0,0.3,0.2,0.4,0.5,0.4h0
	c1.1,0,2,0.9,2,2c0,1.1-0.9,2-2,2H3.5C2.1,9.2,1,8.1,1,6.7s1.1-2.5,2.5-2.5c0.2,0,0.4,0,0.6,0.1C4.4,4.4,4.6,4.2,4.7,4
	C5.2,2.4,6.8,1.3,8.5,1.2z M2.6,11.5c0.1,0,0.2,0.1,0.2,0.2v0.6L3.4,12c0.1-0.1,0.3,0,0.3,0.1c0.1,0.1,0,0.3-0.1,0.3l-0.5,0.3
	L3.6,13c0.1,0.1,0.2,0.2,0.1,0.3c-0.1,0.1-0.2,0.2-0.3,0.1l-0.5-0.3v0.6c0,0.1-0.1,0.2-0.2,0.2s-0.2-0.1-0.2-0.2v-0.6l-0.5,0.3
	c-0.1,0.1-0.3,0-0.3-0.1c-0.1-0.1,0-0.3,0.1-0.3l0.5-0.3l-0.5-0.3c-0.1-0.1-0.2-0.2-0.1-0.3C1.6,12,1.8,12,1.9,12l0.5,0.3v-0.6
	C2.4,11.6,2.5,11.5,2.6,11.5z M5.4,13.5c0.1,0,0.2,0.1,0.2,0.2v0.6L6.1,14c0.1-0.1,0.3,0,0.3,0.1c0.1,0.1,0,0.3-0.1,0.3l-0.5,0.3
	L6.4,15c0.1,0.1,0.2,0.2,0.1,0.3c-0.1,0.1-0.2,0.2-0.3,0.1l-0.5-0.3v0.6c0,0.1-0.1,0.2-0.2,0.2s-0.2-0.1-0.2-0.2v-0.6l-0.5,0.3
	c-0.1,0.1-0.3,0-0.3-0.1c-0.1-0.1,0-0.3,0.1-0.3l0.5-0.3l-0.5-0.3c-0.1-0.1-0.2-0.2-0.1-0.3C4.4,14,4.5,14,4.6,14l0.5,0.3v-0.6
	C5.1,13.6,5.2,13.5,5.4,13.5z M10.9,13.5c0.1,0,0.2,0.1,0.2,0.2v0.6l0.5-0.3c0.1-0.1,0.3,0,0.3,0.1c0.1,0.1,0,0.3-0.1,0.3l-0.5,0.3
	l0.5,0.3c0.1,0.1,0.2,0.2,0.1,0.3c-0.1,0.1-0.2,0.2-0.3,0.1l-0.5-0.3v0.6c0,0.1-0.1,0.2-0.2,0.2s-0.2-0.1-0.2-0.2v-0.6l-0.5,0.3
	c-0.1,0.1-0.3,0-0.3-0.1c-0.1-0.1,0-0.3,0.1-0.3l0.5-0.3l-0.5-0.3c-0.1-0.1-0.2-0.2-0.1-0.3C9.9,14,10,14,10.1,14l0.5,0.3v-0.6
	C10.6,13.6,10.7,13.5,10.9,13.5z M8.1,11.5c0.1,0,0.2,0.1,0.2,0.2v0.6L8.9,12C9,12,9.1,12,9.2,12.1c0.1,0.1,0,0.3-0.1,0.3l-0.5,0.3
	L9.1,13c0.1,0.1,0.2,0.2,0.1,0.3c-0.1,0.1-0.2,0.2-0.3,0.1l-0.5-0.3v0.6c0,0.1-0.1,0.2-0.2,0.2s-0.2-0.1-0.2-0.2v-0.6l-0.5,0.3
	c-0.1,0.1-0.3,0-0.3-0.1C7,13.2,7,13.1,7.1,13l0.5-0.3l-0.5-0.3C7,12.4,7,12.2,7,12.1C7.1,12,7.3,12,7.4,12l0.5,0.3v-0.6
	C7.9,11.6,8,11.5,8.1,11.5z M13.6,11.5c0.1,0,0.2,0.1,0.2,0.2v0.6l0.5-0.3c0.1-0.1,0.3,0,0.3,0.1c0.1,0.1,0,0.3-0.1,0.3l-0.5,0.3
	l0.5,0.3c0.1,0.1,0.2,0.2,0.1,0.3c-0.1,0.1-0.2,0.2-0.3,0.1l-0.5-0.3v0.6c0,0.1-0.1,0.2-0.2,0.2s-0.2-0.1-0.2-0.2v-0.6l-0.5,0.3
	c-0.1,0.1-0.3,0-0.3-0.1c-0.1-0.1,0-0.3,0.1-0.3l0.5-0.3l-0.5-0.3c-0.1-0.1-0.2-0.2-0.1-0.3c0.1-0.1,0.2-0.2,0.3-0.1l0.5,0.3v-0.6
	C13.4,11.6,13.5,11.5,13.6,11.5z"/>
</svg>
