<?xml version="1.0" encoding="utf-8"?>
<!-- Generator: Adobe Illustrator 25.2.1, SVG Export Plug-In . SVG Version: 6.00 Build 0)  -->
<svg version="1.1" id="Capa_1" xmlns="http://www.w3.org/2000/svg" xmlns:xlink="http://www.w3.org/1999/xlink" x="0px" y="0px"
	 viewBox="0 0 16 16" style="enable-background:new 0 0 16 16;" xml:space="preserve">
<style type="text/css">
	.st0{fill:#FFFFFF;}
</style>
<path class="st0" d="M11.5,9c-0.3-2.5-2.5-4.3-5-4C4.8,5.2,3.3,6.4,2.8,8C1.1,8.1-0.1,9.6,0,11.2C0.1,12.8,1.4,14,3,14h8.5
	c1.4,0,2.5-1.1,2.5-2.5S12.9,9,11.5,9z"/>
<path class="st0" d="M14.5,9.8c-0.5-0.8-1.3-1.4-2.2-1.7c-0.7-2.8-3.5-4.5-6.3-4C7,2.2,9.5,1.4,11.4,2.5c1,0.5,1.7,1.4,2,2.5
	c1.4-0.1,2.6,1,2.6,2.4C16.1,8.4,15.5,9.3,14.5,9.8L14.5,9.8z"/>
</svg>
